<svg xmlns="http://www.w3.org/2000/svg" width="192" height="192">
  <defs>
    <clipPath id="a">
      <circle cx="96" cy="96" r="96" fill="none"/>
    </clipPath>
  </defs>
  <g clip-path="url(#a)" fill="none">
    <path fill="#f88300" d="M0 0h192v192H0z"/>
    <path d="M1063.315 1142.43l-2.19-.68-1.981-1.076-1.727-1.424-1000-1000-1.424-1.727-1.076-1.982-.68-2.19L54 131l.237-2.351.68-2.19 1.076-1.982 1.424-1.727 1.727-1.424 1.981-1.076 2.19-.68 2.352-.237 2.35.237 2.19.68 1.983 1.076 1.726 1.424 10.678 10.679-.024-.078-.237-2.351V98.333l.237-2.35.68-2.19 1.076-1.983 1.424-1.726 1.727-1.425 1.982-1.075 2.19-.68L96 86.667l2.351.237 2.19.68 1.982 1.075 1.727 1.425 10.417 10.417V61l.237-2.351.68-2.19 1.075-1.982 1.425-1.727 1.726-1.424 1.982-1.076 2.19-.68 2.351-.237 2.352.237 2.19.68 1.981 1.076 1.727 1.424 1000 1000 1.424 1.727 1.076 1.982.68 2.19.237 2.351v70l-.237 2.351-.68 2.19-1.076 1.982-1.424 1.727-1.727 1.424-1.982 1.076-2.19.68-2.35.237-2.352-.237-2.19-.68-1.982-1.076-1.726-1.424-10.417-10.417V1131l-.237 2.351-.68 2.19-1.076 1.982-1.424 1.727-1.727 1.424-1.982 1.076-2.19.68-2.351.237-2.351-.237-2.19-.68-1.982-1.076-1.727-1.424-10.678-10.679.024.078.237 2.351-.237 2.351-.68 2.19-1.075 1.982-1.425 1.727-1.726 1.424-1.982 1.076-2.19.68-2.351.237z" fill="#ef6c00"/>
    <path d="M57.417 139.25l-1.425-1.727-1.075-1.982-.68-2.19L54 131l.237-2.351.68-2.19 1.075-1.982 1.425-1.727 1.727-1.424 1.981-1.076 2.19-.68 2.352-.237 2.35.237 2.19.68 1.983 1.076 1.726 1.424 10.678 10.679-.024-.078-.237-2.351V98.333l.237-2.35.68-2.19 1.076-1.983 1.424-1.726 1.727-1.425 1.982-1.075 2.19-.68L96 86.667l2.351.237 2.19.68 1.982 1.075 1.727 1.425 10.417 10.417V61l.237-2.351.68-2.19 1.075-1.982 1.425-1.727 1.726-1.424 1.982-1.076 2.19-.68 2.351-.237 2.352.237 2.19.68 1.981 1.076 1.727 1.424L192 110.168V192h-81.833z" fill="#ef6c00"/>
    <path d="M65.667 142.667C59.223 142.667 54 137.443 54 131s5.223-11.667 11.667-11.667c6.443 0 11.666 5.224 11.666 11.667s-5.223 11.667-11.666 11.667zm30.333-56c6.443 0 11.667 5.223 11.667 11.666V131c0 6.443-5.224 11.667-11.667 11.667S84.333 137.443 84.333 131V98.333c0-6.443 5.224-11.666 11.667-11.666zm30.333-37.334C132.777 49.333 138 54.557 138 61v70c0 6.443-5.223 11.667-11.667 11.667-6.443 0-11.666-5.224-11.666-11.667V61c0-6.443 5.223-11.667 11.666-11.667z" fill="#fff" fill-rule="evenodd"/>
  </g>
</svg>
