<svg xmlns="http://www.w3.org/2000/svg" width="192" height="192">
  <defs>
    <clipPath id="a">
      <circle cx="96" cy="96" r="96" fill="none"/>
    </clipPath>
  </defs>
  <g clip-path="url(#a)" fill="none">
    <path fill="#ffc107" d="M0 0h192v192H0z"/>
    <path d="M133.366 73.815l-15.717-15.718 9.888-9.893L1147.333 1068v50.26l-.032.019v5.735l-19.778 19.782-45.82-45.82-.231.747-.647 1.192-.857 1.039-1.04.857-1.191.647-1.318.409-1.414.142v.005l-1.415-.143-1.318-.409-1.193-.647-1.039-.857-11.406-11.406v28.629l15.717 15.722-9.888 9.893L44.667 124V73.74l.032-.019v-5.735l19.778-19.782 45.807 45.807.233-.75.647-1.194.857-1.039 1.04-.857 1.192-.647 1.318-.41 1.415-.142 1.415.143 1.317.409 1.192.647 1.039.857 11.417 11.417z" fill="#ffb300"/>
    <path d="M133.366 73.815l-15.717-15.718 9.888-9.893L192 112.667V192h-79.333l-68-68V73.74l.032-.019v-5.735l19.778-19.782 45.807 45.807.233-.75.647-1.193.857-1.04 1.04-.857 1.192-.647 1.318-.41 1.415-.142 1.415.143 1.317.409 1.192.647 1.039.857 11.417 11.417z" fill="#ffb300"/>
    <path d="M133.366 118.195v-44.38l-15.717-15.718 9.888-9.893L147.333 68v50.26l-.032.019v5.735l-19.778 19.782-9.874-9.88zm-74.732-.014l15.717 15.722-9.888 9.893L44.667 124V73.74l.032-.019v-5.735l19.778-19.782 9.874 9.88-15.717 15.721v44.38zm16.37-15.167a7.021 7.021 0 1 1 7.02-7.023 7.019 7.019 0 0 1-7.02 7.018zm20.991 0a7.021 7.021 0 1 1 7.019-7.023 7.019 7.019 0 0 1-7.019 7.018zm20.991 0a7.021 7.021 0 1 1 7.019-7.023 7.019 7.019 0 0 1-7.019 7.018z" fill="#fff" fill-rule="evenodd"/>
  </g>
</svg>
