<svg xmlns="http://www.w3.org/2000/svg" width="192" height="192">
  <defs>
    <clipPath id="a">
      <circle cx="96" cy="96" r="96" fill="none"/>
    </clipPath>
  </defs>
  <g clip-path="url(#a)" fill="none">
    <path fill="#ffc107" d="M0 0h192v192H0z"/>
    <path d="M1142.476 1125.875l-.546 1.749-.863 1.585-1.142 1.383-1.383 1.142-1.585.863-1.749.546-1.875.19h-74.666l-1.875-.19-1.75-.546-1.584-.863-1.383-1.142-1000-1000-1.142-1.383-.863-1.585-.546-1.75-.19-1.874.046-56 .188-1.875.541-1.749.856-1.585 1.133-1.383 1.374-1.142 1.578-.863 1.744-.546 1.873-.19h28L96 68h37.333l1.875.19 1.75.546 1.584.864 1.383 1.142 1000 1000 1.142 1.382.863 1.585.546 1.75.19 1.874V1124z" fill="#ffb300"/>
    <path d="M52.075 130.592l-1.142-1.383-.863-1.585-.546-1.75-.19-1.874.046-56 .189-1.875.54-1.749.856-1.585 1.133-1.383 1.374-1.142 1.578-.863 1.744-.546 1.873-.19h28L96 68h37.333l1.875.19 1.75.546 1.584.864 1.383 1.142L192 122.817V192h-78.517z" fill="#ffb300"/>
    <path d="M86.667 58.667h-28c-5.134 0-9.287 4.2-9.287 9.333l-.047 56c0 5.133 4.2 9.333 9.334 9.333h74.666c5.134 0 9.334-4.2 9.334-9.333V77.333c0-5.133-4.2-9.333-9.334-9.333H96zm6.766 54.646L108.441 96l20.226 23.333H68l15.167-18.666z" fill="#fff" fill-rule="evenodd"/>
  </g>
</svg>
