<?xml version="1.0" encoding="utf-8"?>
<!-- Generator: Adobe Illustrator 24.1.0, SVG Export Plug-In . SVG Version: 6.00 Build 0)  -->
<svg version="1.1" id="圖層_1" focusable="false" xmlns="http://www.w3.org/2000/svg" xmlns:xlink="http://www.w3.org/1999/xlink"
	 x="0px" y="0px" viewBox="0 0 576 384" style="enable-background:new 0 0 576 384;" xml:space="preserve">
<style type="text/css">
	.st0{fill:#D99A82;}
</style>
<path class="st0" d="M552,0H112C91.1,0,73.4,13.4,66.8,32H24C10.7,32,0,42.7,0,56v272c0,30.9,25.1,56,56,56h496
	c13.3,0,24-10.7,24-24V24C576,10.7,565.3,0,552,0z M48,328V80h16v248c0,4.4-3.6,8-8,8S48,332.4,48,328z M528,336H111.4
	c0.4-2.6,0.6-5.3,0.6-8V48h416V336z M172,216h136c6.6,0,12-5.4,12-12v-96c0-6.6-5.4-12-12-12H172c-6.6,0-12,5.4-12,12v96
	C160,210.6,165.4,216,172,216z M200,136h80v40h-80V136z M160,276v-24c0-6.6,5.4-12,12-12h136c6.6,0,12,5.4,12,12v24
	c0,6.6-5.4,12-12,12H172C165.4,288,160,282.6,160,276z M352,276v-24c0-6.6,5.4-12,12-12h104c6.6,0,12,5.4,12,12v24
	c0,6.6-5.4,12-12,12H364C357.4,288,352,282.6,352,276z M352,132v-24c0-6.6,5.4-12,12-12h104c6.6,0,12,5.4,12,12v24
	c0,6.6-5.4,12-12,12H364C357.4,144,352,138.6,352,132z M352,204v-24c0-6.6,5.4-12,12-12h104c6.6,0,12,5.4,12,12v24
	c0,6.6-5.4,12-12,12H364C357.4,216,352,210.6,352,204z"/>
</svg>
