<svg xmlns="http://www.w3.org/2000/svg" width="192" height="192">
  <defs>
    <clipPath id="a">
      <circle cx="96" cy="96" r="96" fill="none"/>
    </clipPath>
  </defs>
  <g clip-path="url(#a)" fill="none">
    <path fill="#ffc107" d="M0 0h192v192H0z"/>
    <path d="M1150.695 1129.363l-.284.993-1.062 1.717-1.602 1.228-.96.382-1.04.201h-31.874l-1.097-.11-1.024-.317-.928-.5-.812-.666-15.767-15.766-7.252 14.536-1.108 1.451-1.482.988-1.72.462-1.822-.125-1.68-.715-1.326-1.195-15.492-15.492-7.29 14.626-1.11 1.497-1.5 1.018-1.752.475-1.858-.134-1.708-.756-1.33-1.241-1000-1000-.858-1.605-.29-1.844.245-1.643.688-1.512 31.36-62.837.934-1.735 1.436-1.265 1.782-.698 1.97-.035 1.858.672 1.466 1.238 15.631 15.632 6.47-12.964.281-1.006.452-.912 1.334-1.476 1.77-.909.998-.202 1.045-.012 1.029.19.95.37 1.593 1.198 1000 1000 1.067 1.684.293.977.108 1.04v30.351l29.914 29.914 1.064 1.721.287.996.1 1.06z" fill="#ffb300"/>
    <path d="M45.815 131.92l-.858-1.605-.29-1.844.245-1.643.688-1.512 31.36-62.837.934-1.735 1.436-1.265 1.782-.698 1.97-.035 1.858.672 1.466 1.238 15.631 15.632 6.47-12.964.281-1.006.452-.912 1.334-1.476 1.77-.909.998-.202 1.045-.012 1.029.19.95.37 1.593 1.198L192 134.606V192h-86.105z" fill="#ffb300"/>
    <path d="M145.793 122.866h-26.366v-58.6a5.535 5.535 0 0 0-5.04-5.46 5.516 5.516 0 0 0-5.88 4.518L87.693 105.03V64.267a5.54 5.54 0 0 0-4.61-5.521 5.507 5.507 0 0 0-6.123 3.733L45.6 125.316a5.969 5.969 0 0 0-.933 3.155 5.544 5.544 0 0 0 4.186 5.446 5.493 5.493 0 0 0 6.22-2.856l21.56-43.26v40.763c.056 2.52 1.792 4.69 4.228 5.273a5.488 5.488 0 0 0 6.132-2.776l21.374-42.84v40.203c.051 3.033 2.501 5.46 5.506 5.46h31.874a5.581 5.581 0 0 0 5.044-5.577c0-2.893-2.188-5.315-5.04-5.581l.047.14z" fill="#fff"/>
  </g>
</svg>
