<?xml version="1.0" encoding="utf-8"?>
<!-- Generator: Adobe Illustrator 24.1.0, SVG Export Plug-In . SVG Version: 6.00 Build 0)  -->
<svg version="1.1" xmlns="http://www.w3.org/2000/svg" xmlns:xlink="http://www.w3.org/1999/xlink" x="0px" y="0px"
	 viewBox="0 0 218.83 55.64" style="enable-background:new 0 0 218.83 55.64;" xml:space="preserve">
<style type="text/css">
	.st0{fill:#F2F2F2;}
	.st1{fill:#FFFFFF;}
	.st2{fill:#5FBA77;}
	.st3{fill:#D79078;}
	.st4{fill:#C79EC3;}
	.st5{fill:#7FB9DF;}
	.st6{opacity:0.2;fill:none;stroke:#B692BC;stroke-width:0.9832;stroke-miterlimit:10;}
	.st7{opacity:0.2;fill:#C79EC3;}
	.st8{opacity:0.2;fill:none;stroke:#C79EC3;stroke-width:1.3335;stroke-miterlimit:10;}
	.st9{opacity:0.7;fill:#A577AB;}
	.st10{fill:#F0EAF3;}
	.st11{fill:none;stroke:#D79078;stroke-miterlimit:10;}
	.st12{opacity:0.2;fill:none;stroke:#060001;stroke-width:1.3335;stroke-miterlimit:10;}
	.st13{opacity:0.5;}
	.st14{fill:url(#SVGID_1_);}
	.st15{fill:url(#SVGID_2_);}
	.st16{fill:url(#SVGID_3_);}
	.st17{fill:url(#SVGID_4_);}
	.st18{fill:url(#SVGID_5_);}
	.st19{fill:url(#SVGID_6_);}
	.st20{fill:url(#SVGID_7_);}
	.st21{fill:url(#SVGID_8_);}
	.st22{fill:url(#SVGID_9_);}
	.st23{fill:url(#SVGID_10_);}
	.st24{fill:url(#SVGID_11_);}
	.st25{fill:url(#SVGID_12_);}
	.st26{fill:url(#SVGID_13_);}
	.st27{fill:url(#SVGID_14_);}
	.st28{fill:url(#SVGID_15_);}
	.st29{fill:url(#SVGID_16_);}
	.st30{fill:url(#SVGID_17_);}
	.st31{fill:url(#SVGID_18_);}
	.st32{fill:url(#SVGID_19_);}
	.st33{fill:url(#SVGID_20_);}
	.st34{fill:url(#SVGID_21_);}
	.st35{fill:url(#SVGID_22_);}
	.st36{fill:url(#SVGID_23_);}
	.st37{fill:url(#SVGID_24_);}
	.st38{fill:url(#SVGID_25_);}
	.st39{fill:url(#SVGID_26_);}
	.st40{fill:url(#SVGID_27_);}
	.st41{fill:url(#SVGID_28_);}
	.st42{fill:url(#SVGID_29_);}
	.st43{fill:url(#SVGID_30_);}
	.st44{fill:url(#SVGID_31_);}
	.st45{fill:url(#SVGID_32_);}
	.st46{fill:url(#SVGID_33_);}
	.st47{fill:url(#SVGID_34_);}
	.st48{fill:url(#SVGID_35_);}
	.st49{fill:url(#SVGID_36_);}
	.st50{fill:url(#SVGID_37_);}
	.st51{fill:url(#SVGID_38_);}
	.st52{fill:url(#SVGID_39_);}
	.st53{fill:url(#SVGID_40_);}
	.st54{fill:url(#SVGID_41_);}
	.st55{fill:url(#SVGID_42_);}
	.st56{fill:url(#SVGID_43_);}
	.st57{fill:url(#SVGID_44_);}
	.st58{fill:url(#SVGID_45_);}
	.st59{fill:url(#SVGID_46_);}
	.st60{fill:url(#SVGID_47_);}
	.st61{fill:url(#SVGID_48_);}
	.st62{fill:url(#SVGID_49_);}
	.st63{fill:url(#SVGID_50_);}
	.st64{fill:url(#SVGID_51_);}
	.st65{fill:url(#SVGID_52_);}
	.st66{fill:url(#SVGID_53_);}
	.st67{fill:url(#SVGID_54_);}
	.st68{fill:url(#SVGID_55_);}
	.st69{fill:url(#SVGID_56_);}
	.st70{fill:url(#SVGID_57_);}
	.st71{fill:url(#SVGID_58_);}
	.st72{fill:url(#SVGID_59_);}
	.st73{fill:url(#SVGID_60_);}
	.st74{fill:url(#SVGID_61_);}
	.st75{fill:url(#SVGID_62_);}
	.st76{fill:url(#SVGID_63_);}
	.st77{fill:url(#SVGID_64_);}
	.st78{fill:url(#SVGID_65_);}
	.st79{fill:url(#SVGID_66_);}
	.st80{fill:url(#SVGID_67_);}
	.st81{fill:url(#SVGID_68_);}
	.st82{fill:url(#SVGID_69_);}
	.st83{fill:url(#SVGID_70_);}
	.st84{fill:url(#SVGID_71_);}
	.st85{fill:url(#SVGID_72_);}
	.st86{fill:url(#SVGID_73_);}
	.st87{fill:url(#SVGID_74_);}
	.st88{fill:url(#SVGID_75_);}
	.st89{fill:url(#SVGID_76_);}
	.st90{fill:url(#SVGID_77_);}
	.st91{fill:url(#SVGID_78_);}
	.st92{fill:url(#SVGID_79_);}
	.st93{fill:url(#SVGID_80_);}
	.st94{fill:url(#SVGID_81_);}
	.st95{fill:url(#SVGID_82_);}
	.st96{fill:url(#SVGID_83_);}
	.st97{fill:url(#SVGID_84_);}
	.st98{fill:url(#SVGID_85_);}
	.st99{fill:url(#SVGID_86_);}
	.st100{fill:url(#SVGID_87_);}
	.st101{fill:url(#SVGID_88_);}
	.st102{fill:url(#SVGID_89_);}
	.st103{fill:url(#SVGID_90_);}
	.st104{fill:url(#SVGID_91_);}
	.st105{fill:url(#SVGID_92_);}
	.st106{fill:url(#SVGID_93_);}
	.st107{fill:url(#SVGID_94_);}
	.st108{fill:url(#SVGID_95_);}
	.st109{fill:url(#SVGID_96_);}
	.st110{fill:url(#SVGID_97_);}
	.st111{fill:url(#SVGID_98_);}
	.st112{fill:url(#SVGID_99_);}
	.st113{fill:url(#SVGID_100_);}
	.st114{fill:url(#SVGID_101_);}
	.st115{fill:url(#SVGID_102_);}
	.st116{fill:url(#SVGID_103_);}
	.st117{fill:url(#SVGID_104_);}
	.st118{fill:url(#SVGID_105_);}
	.st119{fill:url(#SVGID_106_);}
	.st120{fill:url(#SVGID_107_);}
	.st121{fill:url(#SVGID_108_);}
	.st122{fill:url(#SVGID_109_);}
	.st123{fill:url(#SVGID_110_);}
	.st124{fill:url(#SVGID_111_);}
	.st125{fill:url(#SVGID_112_);}
	.st126{fill:url(#SVGID_113_);}
	.st127{fill:url(#SVGID_114_);}
	.st128{fill:url(#SVGID_115_);}
	.st129{fill:url(#SVGID_116_);}
	.st130{fill:url(#SVGID_117_);}
	.st131{fill:url(#SVGID_118_);}
	.st132{fill:url(#SVGID_119_);}
	.st133{fill:url(#SVGID_120_);}
	.st134{fill:url(#SVGID_121_);}
	.st135{fill:url(#SVGID_122_);}
	.st136{fill:url(#SVGID_123_);}
	.st137{fill:url(#SVGID_124_);}
	.st138{fill:url(#SVGID_125_);}
	.st139{fill:url(#SVGID_126_);}
	.st140{fill:url(#SVGID_127_);}
	.st141{fill:url(#SVGID_128_);}
	.st142{fill:url(#SVGID_129_);}
	.st143{fill:url(#SVGID_130_);}
	.st144{fill:url(#SVGID_131_);}
	.st145{fill:url(#SVGID_132_);}
	.st146{fill:url(#SVGID_133_);}
	.st147{fill:url(#SVGID_134_);}
	.st148{fill:url(#SVGID_135_);}
	.st149{fill:url(#SVGID_136_);}
	.st150{fill:url(#SVGID_137_);}
	.st151{fill:url(#SVGID_138_);}
	.st152{fill:url(#SVGID_139_);}
	.st153{fill:url(#SVGID_140_);}
	.st154{fill:url(#SVGID_141_);}
	.st155{fill:url(#SVGID_142_);}
	.st156{fill:url(#SVGID_143_);}
	.st157{fill:url(#SVGID_144_);}
	.st158{fill:url(#SVGID_145_);}
	.st159{fill:url(#SVGID_146_);}
	.st160{fill:url(#SVGID_147_);}
	.st161{fill:url(#SVGID_148_);}
	.st162{fill:url(#SVGID_149_);}
	.st163{fill:url(#SVGID_150_);}
	.st164{fill:url(#SVGID_151_);}
	.st165{fill:url(#SVGID_152_);}
	.st166{fill:url(#SVGID_153_);}
	.st167{fill:url(#SVGID_154_);}
	.st168{fill:url(#SVGID_155_);}
	.st169{fill:url(#SVGID_156_);}
	.st170{fill:url(#SVGID_157_);}
	.st171{fill:url(#SVGID_158_);}
	.st172{fill:url(#SVGID_159_);}
	.st173{fill:url(#SVGID_160_);}
	.st174{fill:url(#SVGID_161_);}
	.st175{fill:url(#SVGID_162_);}
	.st176{fill:url(#SVGID_163_);}
	.st177{fill:url(#SVGID_164_);}
	.st178{fill:url(#SVGID_165_);}
	.st179{fill:url(#SVGID_166_);}
	.st180{fill:url(#SVGID_167_);}
	.st181{fill:url(#SVGID_168_);}
	.st182{fill:url(#SVGID_169_);}
	.st183{fill:url(#SVGID_170_);}
	.st184{fill:url(#SVGID_171_);}
	.st185{fill:url(#SVGID_172_);}
	.st186{fill:url(#SVGID_173_);}
	.st187{fill:url(#SVGID_174_);}
	.st188{fill:url(#SVGID_175_);}
	.st189{fill:url(#SVGID_176_);}
	.st190{fill:url(#SVGID_177_);}
	.st191{fill:url(#SVGID_178_);}
	.st192{fill:url(#SVGID_179_);}
	.st193{fill:url(#SVGID_180_);}
	.st194{fill:url(#SVGID_181_);}
	.st195{fill:url(#SVGID_182_);}
	.st196{fill:url(#SVGID_183_);}
	.st197{fill:url(#SVGID_184_);}
	.st198{fill:url(#SVGID_185_);}
	.st199{fill:url(#SVGID_186_);}
	.st200{fill:url(#SVGID_187_);}
	.st201{fill:url(#SVGID_188_);}
	.st202{fill:url(#SVGID_189_);}
	.st203{fill:url(#SVGID_190_);}
	.st204{fill:url(#SVGID_191_);}
	.st205{fill:url(#SVGID_192_);}
	.st206{fill:url(#SVGID_193_);}
	.st207{fill:url(#SVGID_194_);}
	.st208{fill:url(#SVGID_195_);}
	.st209{fill:url(#SVGID_196_);}
	.st210{fill:url(#SVGID_197_);}
	.st211{fill:url(#SVGID_198_);}
	.st212{fill:url(#SVGID_199_);}
	.st213{fill:url(#SVGID_200_);}
	.st214{fill:url(#SVGID_201_);}
	.st215{fill:url(#SVGID_202_);}
	.st216{fill:url(#SVGID_203_);}
	.st217{fill:url(#SVGID_204_);}
	.st218{fill:url(#SVGID_205_);}
	.st219{fill:url(#SVGID_206_);}
	.st220{fill:url(#SVGID_207_);}
	.st221{fill:url(#SVGID_208_);}
	.st222{fill:url(#SVGID_209_);}
	.st223{fill:url(#SVGID_210_);}
	.st224{fill:url(#SVGID_211_);}
	.st225{fill:url(#SVGID_212_);}
	.st226{fill:url(#SVGID_213_);}
	.st227{fill:url(#SVGID_214_);}
	.st228{fill:url(#SVGID_215_);}
	.st229{fill:url(#SVGID_216_);}
	.st230{fill:url(#SVGID_217_);}
	.st231{fill:url(#SVGID_218_);}
	.st232{fill:url(#SVGID_219_);}
	.st233{fill:url(#SVGID_220_);}
	.st234{fill:url(#SVGID_221_);}
	.st235{fill:url(#SVGID_222_);}
	.st236{fill:url(#SVGID_223_);}
	.st237{fill:url(#SVGID_224_);}
	.st238{fill:url(#SVGID_225_);}
	.st239{fill:url(#SVGID_226_);}
	.st240{fill:url(#SVGID_227_);}
	.st241{fill:url(#SVGID_228_);}
	.st242{fill:url(#SVGID_229_);}
	.st243{fill:url(#SVGID_230_);}
	.st244{fill:url(#SVGID_231_);}
	.st245{fill:url(#SVGID_232_);}
	.st246{fill:url(#SVGID_233_);}
	.st247{fill:#7E8081;}
	.st248{fill:none;stroke:#7E8081;stroke-miterlimit:10;}
	.st249{fill:none;stroke:#5FBA77;stroke-miterlimit:10;}
	.st250{fill:#7F8080;}
	.st251{fill:#70217F;}
	.st252{opacity:0.3;}
	.st253{fill-rule:evenodd;clip-rule:evenodd;fill:#D79078;}
	.st254{fill:#70217F;stroke:#FFFFFF;stroke-width:0.5;stroke-miterlimit:10;}
	.st255{fill:#1C9CBD;}
	.st256{fill:#B5B3B3;}
	.st257{fill:none;stroke:#FFFFFF;stroke-width:0.5;stroke-miterlimit:10;}
	.st258{fill:#5EB875;}
	.st259{clip-path:url(#SVGID_235_);}
	.st260{fill:#702380;}
	.st261{clip-path:url(#SVGID_237_);}
	.st262{fill:#9FA0A0;}
	.st263{fill:#7E318E;}
	.st264{fill:#A0A5A5;}
	.st265{fill:#77B9E1;}
	.st266{fill:#060001;}
	.st267{fill:#999999;}
	.st268{fill:#CCCCCC;}
	.st269{fill:#E6E6E5;}
	.st270{fill:#0067A8;}
</style>
<g id="底色">
</g>
<g id="設計">
</g>
<g id="圖層_8">
	<g>
		<g>
			<g>
				<g id="XMLID_4_">
					<g>
						<path class="st2" d="M143.18,5.81l-25.21,0v32.35h11.07V27.61h14.14c6.29,0,7.98-3.24,7.98-6.52v-8.75
							C151.16,9.05,149.47,5.81,143.18,5.81z M141.18,18.45c0,1.13-0.61,2.04-2.04,2.04h-10.1v-7.56h10.1
							c1.43,0,2.04,0.91,2.04,2.04V18.45z"/>
						<path class="st2" d="M162.16,5.93c-2.65,0-3.55,1.59-3.55,3.55v28.68h11.07V5.93H162.16z"/>
						<path class="st2" d="M77.25,13.78h11.86v24.39h11.07V13.78h9.49c1.97,0,2.37-0.71,2.37-1.58V5.81h-34.8V13.78z"/>
					</g>
				</g>
				<g id="XMLID_3_">
					<g>
						<path class="st2" d="M203.56,10.02v17.66c0,1.82-1.49,3.3-3.3,3.3h-5.21c-2.16,0-3.93-1.77-3.93-3.93V5.97L180.1,5.9v21.94
							c0,6.08,5.07,10.23,12.59,10.23h9.3c7.52,0,12.59-4.14,12.59-10.23V5.9l-6.97,0.05C205.37,5.96,203.56,7.78,203.56,10.02z"/>
					</g>
				</g>
			</g>
			<g>
				<g>
					<path class="st262" d="M80.12,46.41h-2.51v-1.35h6.83v1.35h-2.53v6.77h-1.79V46.41z"/>
					<path class="st262" d="M85.81,45.06h2.93c1.98,0,3.5,0.63,3.5,2.55c0,1.85-1.53,2.69-3.45,2.69H87.6v2.89h-1.79V45.06z
						 M88.67,49.01c1.23,0,1.82-0.47,1.82-1.4c0-0.94-0.65-1.26-1.88-1.26H87.6v2.67H88.67z"/>
					<path class="st262" d="M93.69,45.06h1.79v8.12h-1.79V45.06z"/>
					<path class="st262" d="M96.83,52.46l0.81-1.01c0.6,0.43,1.18,0.67,1.81,0.67c0.68,0,0.98-0.26,0.98-0.65
						c0-0.46-0.7-0.67-1.41-0.92c-0.86-0.3-1.85-0.77-1.85-1.79c0-1.11,0.99-1.89,2.51-1.89c0.99,0,1.74,0.37,2.31,0.76l-0.8,0.98
						c-0.48-0.31-0.95-0.53-1.46-0.53c-0.6,0-0.89,0.24-0.89,0.59c0,0.45,0.66,0.61,1.38,0.86c0.89,0.31,1.88,0.71,1.88,1.85
						c0,1.08-0.93,1.94-2.69,1.94C98.5,53.33,97.5,52.97,96.83,52.46z"/>
					<path class="st262" d="M103.02,50.11c0-2.05,1.56-3.24,3.25-3.24s3.25,1.19,3.25,3.24c0,2.03-1.56,3.21-3.25,3.21
						S103.02,52.14,103.02,50.11z M107.71,50.11c0-1.16-0.52-1.92-1.44-1.92s-1.44,0.76-1.44,1.92c0,1.15,0.52,1.9,1.44,1.9
						S107.71,51.27,107.71,50.11z"/>
					<path class="st262" d="M114.53,45.67c-0.23-0.08-0.5-0.13-0.71-0.13c-0.53,0-0.82,0.29-0.82,0.97v0.53h1.27v1.27H113v4.87
						h-1.77V48.3h-0.91v-1.2l0.91-0.07v-0.5c0-1.28,0.65-2.27,2.35-2.27c0.52,0,0.98,0.11,1.28,0.22L114.53,45.67z"/>
					<path class="st262" d="M115.96,51.02V48.3H115v-1.2l1.04-0.08l0.21-1.65h1.48v1.65h1.67v1.27h-1.67v2.72
						c0,0.7,0.31,1.03,0.92,1.03c0.22,0,0.48-0.07,0.66-0.13l0.29,1.17c-0.36,0.11-0.83,0.23-1.42,0.23
						C116.57,53.33,115.96,52.41,115.96,51.02z"/>
					<path class="st262" d="M120.29,47.03h1.77l0.74,3.04c0.13,0.59,0.22,1.19,0.34,1.79h0.05c0.13-0.6,0.25-1.21,0.42-1.79
						l0.81-3.04H126l0.85,3.04c0.16,0.59,0.28,1.19,0.42,1.79h0.06c0.12-0.6,0.21-1.2,0.34-1.79l0.74-3.04h1.64l-1.67,6.14h-2.09
						l-0.71-2.68c-0.14-0.58-0.25-1.14-0.39-1.79h-0.06c-0.13,0.65-0.23,1.22-0.37,1.79l-0.69,2.68h-2.03L120.29,47.03z"/>
					<path class="st262" d="M130.87,51.51c0-1.32,1.17-2.01,3.89-2.27c-0.02-0.6-0.31-1.06-1.15-1.06c-0.63,0-1.23,0.25-1.86,0.58
						l-0.64-1.06c0.8-0.45,1.76-0.81,2.82-0.81c1.71,0,2.6,0.93,2.6,2.71v3.59h-1.45l-0.13-0.66h-0.04
						c-0.59,0.46-1.27,0.81-2.04,0.81C131.66,53.33,130.87,52.55,130.87,51.51z M134.75,51.46v-1.24c-1.64,0.2-2.2,0.6-2.2,1.15
						c0,0.48,0.37,0.69,0.89,0.69C133.96,52.07,134.33,51.85,134.75,51.46z"/>
					<path class="st262" d="M138.32,47.03h1.45l0.12,1.09h0.05c0.5-0.8,1.22-1.24,1.92-1.24c0.37,0,0.59,0.05,0.8,0.13l-0.31,1.39
						c-0.23-0.07-0.42-0.1-0.7-0.1c-0.53,0-1.17,0.32-1.56,1.21v3.66h-1.76V47.03z"/>
					<path class="st262" d="M143.1,50.11c0-2,1.53-3.24,3.15-3.24c1.86,0,2.82,1.24,2.82,2.94c0,0.3-0.04,0.59-0.08,0.73h-4.16
						c0.15,1.01,0.87,1.54,1.87,1.54c0.56,0,1.04-0.15,1.52-0.43l0.6,0.99c-0.66,0.42-1.52,0.68-2.37,0.68
						C144.57,53.33,143.1,52.13,143.1,50.11z M147.55,49.49c0-0.83-0.41-1.36-1.28-1.36c-0.71,0-1.34,0.46-1.47,1.36H147.55z"/>
					<path class="st262" d="M158.84,49.52v-4.47h1.79v4.61c0,1.69,0.64,2.26,1.69,2.26c1.06,0,1.74-0.57,1.74-2.26v-4.61h1.71v4.47
						c0,2.7-1.27,3.81-3.45,3.81C160.15,53.33,158.84,52.22,158.84,49.52z"/>
					<path class="st262" d="M167.69,47.03h1.45l0.12,0.81h0.05c0.59-0.53,1.28-0.97,2.2-0.97c1.46,0,2.09,0.92,2.09,2.47v3.83h-1.77
						v-3.63c0-0.94-0.29-1.28-0.95-1.28c-0.56,0-0.91,0.24-1.41,0.69v4.22h-1.76V47.03z"/>
					<path class="st262" d="M175.21,45.17c0-0.53,0.45-0.88,1.06-0.88c0.6,0,1.05,0.35,1.05,0.88c0,0.5-0.45,0.88-1.05,0.88
						C175.65,46.04,175.21,45.67,175.21,45.17z M175.38,47.03h1.76v6.14h-1.76V47.03z"/>
					<path class="st262" d="M178.21,47.03H180l0.99,3.06c0.17,0.6,0.36,1.24,0.54,1.87h0.06c0.17-0.63,0.36-1.26,0.54-1.87
						l0.99-3.06h1.7l-2.26,6.14h-2.05L178.21,47.03z"/>
					<path class="st262" d="M185.33,50.11c0-2,1.53-3.24,3.15-3.24c1.86,0,2.82,1.24,2.82,2.94c0,0.3-0.04,0.59-0.08,0.73h-4.16
						c0.15,1.01,0.87,1.54,1.87,1.54c0.56,0,1.04-0.15,1.52-0.43l0.6,0.99c-0.66,0.42-1.52,0.68-2.37,0.68
						C186.8,53.33,185.33,52.13,185.33,50.11z M189.79,49.49c0-0.83-0.41-1.36-1.28-1.36c-0.71,0-1.34,0.46-1.47,1.36H189.79z"/>
					<path class="st262" d="M192.78,47.03h1.45l0.12,1.09h0.05c0.5-0.8,1.22-1.24,1.92-1.24c0.37,0,0.59,0.05,0.8,0.13l-0.31,1.39
						c-0.23-0.07-0.42-0.1-0.7-0.1c-0.53,0-1.17,0.32-1.56,1.21v3.66h-1.76V47.03z"/>
					<path class="st262" d="M197.46,52.46l0.81-1.01c0.6,0.43,1.18,0.67,1.81,0.67c0.68,0,0.98-0.26,0.98-0.65
						c0-0.46-0.7-0.67-1.41-0.92c-0.86-0.3-1.85-0.77-1.85-1.79c0-1.11,0.99-1.89,2.51-1.89c0.99,0,1.74,0.37,2.31,0.76l-0.8,0.98
						c-0.48-0.31-0.95-0.53-1.46-0.53c-0.6,0-0.89,0.24-0.89,0.59c0,0.45,0.66,0.61,1.38,0.86c0.89,0.31,1.88,0.71,1.88,1.85
						c0,1.08-0.93,1.94-2.69,1.94C199.13,53.33,198.12,52.97,197.46,52.46z"/>
					<path class="st262" d="M203.92,45.17c0-0.53,0.45-0.88,1.06-0.88c0.6,0,1.05,0.35,1.05,0.88c0,0.5-0.45,0.88-1.05,0.88
						C204.37,46.04,203.92,45.67,203.92,45.17z M204.09,47.03h1.76v6.14h-1.76V47.03z"/>
					<path class="st262" d="M207.98,51.02V48.3h-0.95v-1.2l1.04-0.08l0.21-1.65h1.48v1.65h1.67v1.27h-1.67v2.72
						c0,0.7,0.31,1.03,0.92,1.03c0.22,0,0.48-0.07,0.66-0.13l0.29,1.17c-0.36,0.11-0.83,0.23-1.42,0.23
						C208.59,53.33,207.98,52.41,207.98,51.02z"/>
					<path class="st262" d="M212.67,55.52l0.33-1.24c0.12,0.03,0.31,0.08,0.47,0.08c0.69,0,1.07-0.4,1.27-0.93l0.12-0.36l-2.63-6.03
						h1.79l1.07,2.85c0.21,0.55,0.37,1.14,0.57,1.73h0.06c0.16-0.57,0.33-1.16,0.48-1.73l0.93-2.85h1.7l-2.4,6.33
						c-0.59,1.45-1.32,2.28-2.82,2.28C213.21,55.64,212.94,55.6,212.67,55.52z"/>
				</g>
			</g>
		</g>
		<g>
			<path class="st263" d="M60.7,27.87C58.25,64.94,0.35,63.63,0,26.34c4.23,30.71,56.47,30.71,60.7,0L60.7,27.87z"/>
			<path class="st263" d="M60.7,17.61C58.25,54.68,0.35,53.37,0,16.08c4.23,30.71,56.47,30.71,60.7,0L60.7,17.61z"/>
			<path class="st2" d="M53.14,7.87c0,0-9.96,4.27-9.78,15.06v9.23c9.07-4.02,15.67-12.4,17.04-21.8C60.88,7.74,60.65,2.73,60.7,0
				h-5.78c-6.39,0-11.56,4.89-11.56,10.91v3.11C45.33,10.67,48.4,7.87,53.14,7.87z"/>
			<path class="st2" d="M0.31,10.37c0.21,1.4,0.53,2.77,0.95,4.09c0.45,1.41,1,2.78,1.67,4.09c1.45,2.89,3.4,5.51,5.75,7.77
				c0.14,0.14,0.29,0.28,0.44,0.42c2.39,2.21,5.17,4.05,8.23,5.43v-3.23c0-0.01,0-0.02,0-0.03c0.18-10.8-9.78-15.06-9.78-15.06
				c4.74,0,7.81,2.8,9.79,6.16v-9.09C17.34,4.89,12.17,0,5.78,0H0v6.28C0,7.66,0.1,9.03,0.31,10.37z"/>
		</g>
	</g>
</g>
<g id="標示">
</g>
</svg>
