<svg xmlns="http://www.w3.org/2000/svg" width="192" height="192">
  <defs>
    <clipPath id="a">
      <circle cx="96" cy="96" r="96" fill="none"/>
    </clipPath>
  </defs>
  <g clip-path="url(#a)" fill="none">
    <path fill="#f88300" d="M0 0h192v192H0z"/>
    <path d="M57.132 105.856l.748-2.137.961-2.071 1.175-1.988 1.389-1.888L63.007 96l13.192-13.197 6.277 6.262L89.4 95.99l6.596-6.597-6.926-6.926-6.267-6.272L96 63.007l1.772-1.602 1.888-1.389 1.988-1.175 2.07-.961 2.138-.748 2.187-.534 2.22-.32 2.237-.107 2.237.107 2.22.32 2.186.534 2.137.748 2.07.961 1.987 1.175 1.886 1.389 1.77 1.602 1000 1000 1.602 1.77 1.389 1.886 1.175 1.987.96 2.07.749 2.137.534 2.186.32 2.22.107 2.237-.107 2.237-.32 2.22-.534 2.187-.748 2.137-.961 2.071-1.175 1.988-1.389 1.888-1.602 1.772-13.192 13.197-6.277-6.262-6.93-6.93-6.593 6.595 6.929 6.929 6.267 6.272-13.197 13.192-1.772 1.602-1.888 1.389-1.988 1.175-2.07.96-2.138.749-2.187.534-2.22.32-2.237.107-2.237-.107-2.22-.32-2.186-.534-2.137-.748-2.07-.961-1.987-1.175-1.886-1.389-1.77-1.602-1000-1000-1.602-1.77-1.389-1.886-1.175-1.987-.961-2.07-.748-2.137-.534-2.186-.32-2.22-.107-2.237.107-2.237.32-2.22z" fill="#ef6c00"/>
    <path d="M57.132 105.856l.748-2.137.961-2.071 1.175-1.988 1.389-1.888L63.007 96l13.192-13.197 6.277 6.262L89.4 95.99l6.596-6.597-6.926-6.926-6.267-6.272L96 63.007l1.772-1.602 1.888-1.389 1.988-1.175 2.07-.961 2.138-.748 2.187-.534 2.22-.32 2.237-.107 2.237.107 2.22.32 2.186.534 2.137.748 2.07.961 1.987 1.175 1.886 1.389 1.77 1.602L192 126.013V192h-65.987l-63.006-63.007-1.602-1.77-1.389-1.886-1.175-1.987-.961-2.07-.748-2.137-.534-2.186-.32-2.22-.107-2.237.107-2.237.32-2.22z" fill="#ef6c00"/>
    <path d="M69.27 122.73c-5.647-5.646-5.647-14.816 0-20.458l13.206-13.207-6.277-6.262L63.007 96c-9.114 9.11-9.114 23.893 0 32.993 9.1 9.114 23.884 9.114 32.993 0l13.197-13.192-6.267-6.272-13.207 13.197c-5.637 5.647-14.807 5.647-20.454 0zm16.832-10.229l26.395-26.399-6.604-6.608-26.394 26.4zM96 63.007L82.803 76.195l6.267 6.272 13.207-13.198c5.637-5.646 14.807-5.646 20.454 0 5.646 5.647 5.646 14.817 0 20.459l-13.207 13.207 6.277 6.262L128.993 96c9.114-9.11 9.114-23.893 0-32.993-9.1-9.114-23.884-9.114-32.993 0z" fill="#fff" fill-rule="evenodd"/>
  </g>
</svg>
