<svg xmlns="http://www.w3.org/2000/svg" width="192" height="192">
  <defs>
    <clipPath id="a">
      <circle cx="96" cy="96" r="96" fill="none"/>
    </clipPath>
  </defs>
  <g clip-path="url(#a)" fill="none">
    <path fill="#ffc107" d="M0 0h192v192H0z"/>
    <path d="M101.765 71.878l1.289-2.379 1.708-2.07 2.07-1.709 2.379-1.289 2.63-.814 2.826-.284 2.823.284 2.625.814 2.37 1.29 2.063 1.707 1000 1000 1.7 2.071 1.281 2.379.81 2.63.281 2.825-.282 2.826-.809 2.63-1.281 2.378-1.7 2.071-1.866 1.546 21.076 21.077 1.492 1.594 1.126 1.721.71 1.849.247 1.975v11.667h-28l-9.333-9.334v9.334h-65.333l-1000-1000V117l.247-1.975.71-1.849 1.126-1.721 1.492-1.594 1.811-1.467 2.083-1.34 2.305-1.213 2.482-1.085 5.296-1.788 5.423-1.278 5.166-.767 2.367-.192 2.158-.064 2.16.064 1.554.126-13.619-13.619-1.708-2.07-1.289-2.379-.814-2.63-.284-2.826.284-2.825.814-2.63 1.29-2.379 1.707-2.07L69.5 65.72l2.379-1.289 2.63-.814 2.825-.284 2.824.284 2.625.814 2.37 1.29 2.063 1.707 14.186 14.186-.45-1.455-.284-2.826.284-2.825z" fill="#ffb300"/>
    <path d="M101.765 71.878l1.289-2.379 1.708-2.07 2.07-1.709 2.379-1.289 2.63-.814 2.826-.284 2.823.284 2.625.814 2.37 1.29 2.063 1.707L192 134.88V192h-84l-63.333-63.333V117l.247-1.975.71-1.849 1.126-1.721 1.492-1.594 1.811-1.467 2.083-1.34 2.305-1.213 2.482-1.085 5.296-1.788 5.423-1.278 5.166-.767 2.367-.192 2.158-.064 2.16.064 1.554.126-13.619-13.619-1.708-2.07-1.289-2.38-.814-2.629-.284-2.826.284-2.825.814-2.63 1.29-2.379 1.707-2.07L69.5 65.72l2.379-1.289 2.63-.814 2.825-.284 2.824.284 2.625.814 2.37 1.29 2.063 1.707 14.186 14.186-.45-1.455-.284-2.826.284-2.825z" fill="#ffb300"/>
    <path d="M114.667 91.333c7.746 0 13.953-6.253 13.953-14 0-7.746-6.207-14-13.953-14-7.747 0-14 6.254-14 14 0 7.747 6.253 14 14 14zm-37.334 0c7.747 0 13.954-6.253 13.954-14 0-7.746-6.207-14-13.954-14-7.746 0-14 6.254-14 14 0 7.747 6.254 14 14 14zm0 9.334c-10.873 0-32.666 5.46-32.666 16.333v11.667H110V117c0-10.873-21.793-16.333-32.667-16.333zm37.334 0c-1.354 0-2.894.093-4.527.233 5.413 3.92 9.193 9.193 9.193 16.1v11.667h28V117c0-10.873-21.793-16.333-32.666-16.333z" fill="#fff" fill-rule="evenodd"/>
  </g>
</svg>
