<svg xmlns="http://www.w3.org/2000/svg" width="192" height="192">
  <defs>
    <clipPath id="a">
      <circle cx="96" cy="96" r="96" fill="none"/>
    </clipPath>
  </defs>
  <g clip-path="url(#a)" fill="none">
    <path fill="#f88300" d="M0 0h192v192H0z"/>
    <path d="M68 68.387v-9.72l.284-2.822.816-2.628 1.291-2.378 1.71-2.072 2.071-1.71 2.379-1.29 2.628-.816L82 44.667h37.333l2.822.284 2.628.816 2.378 1.29 2.072 1.71 1000 1000 1.71 2.072 1.29 2.378.816 2.628.284 2.822v74.666l-.284 2.822-.816 2.628-1.29 2.378-1.71 2.072-2.072 1.71-2.378 1.29-2.628.816-2.822.284H1082l-2.821-.284-2.628-.816-2.379-1.29-2.072-1.71-24.931-24.932-2.502 1.032-1000-1000v-17.126l10.855-1.605-10.855-10.855v-17.08l47.683 20.07z" fill="#ef6c00"/>
    <path d="M68 68.387v-9.72l.284-2.822.816-2.628 1.291-2.378 1.71-2.072 2.071-1.71 2.379-1.29 2.628-.816L82 44.667h37.333l2.822.284 2.628.816 2.378 1.29 2.072 1.71L192 111.534V192h-74.667l-72.666-72.667v-17.126l10.855-1.605-10.855-10.855v-17.08l47.683 20.07z" fill="#ef6c00"/>
    <path d="M68 123.71l9.333-3.85v13.473H124V58.667H77.333v13.612L68 68.387v-9.72c0-7.732 6.268-14 14-14h37.333c7.732 0 14 6.268 14 14v74.666c0 7.732-6.268 14-14 14H82c-7.732 0-14-6.268-14-14zm-23.333-21.503l42-6.207-42-6.253v-17.08l56 23.571-56 23.095z" fill="#fff" fill-rule="evenodd"/>
  </g>
</svg>
