<svg xmlns="http://www.w3.org/2000/svg" width="192" height="192">
  <defs>
    <clipPath id="a">
      <circle cx="96" cy="96" r="96" fill="none"/>
    </clipPath>
  </defs>
  <g clip-path="url(#a)" fill="none">
    <path fill="#ffc107" d="M0 0h192v192H0z"/>
    <path d="M1138 1110v18.676l-.19 1.88-.541 1.75-.859 1.584-1.137 1.38-1.377 1.138-1.582.86-1.747.543-1.877.189h-65.38l-1.877-.19-1.747-.545-1.582-.862-1.377-1.14-1000-1000-1.137-1.381-.858-1.583-.543-1.749-.189-1.874V110h10.13l-7.403-7.404-1.137-1.378-.858-1.578-.543-1.74L54 96.037V63.296l.19-1.873.542-1.745.858-1.58 1.137-1.375 1.377-1.135 1.582-.857 1.747-.542L63.31 54h65.38l1.877.19 1.747.546 1.582.862 1.378 1.139 1000 1000 1.136 1.378.859 1.579.542 1.74.189 1.862v32.741l-.19 1.874-.541 1.744-.859 1.58-1.136 1.375-1.378 1.136-1.395.755z" fill="#ffb300"/>
    <path d="M56.727 135.263l-1.137-1.381-.859-1.583-.542-1.749-.189-1.874V110h10.13l-7.403-7.404-1.137-1.378-.858-1.578-.543-1.74L54 96.037V63.296l.19-1.873.542-1.745.858-1.58 1.137-1.375 1.377-1.135 1.582-.857 1.747-.542L63.31 54h65.38l1.877.19 1.747.546 1.582.862 1.378 1.139L192 113.464V192h-78.537z" fill="#ffb300"/>
    <path d="M54 110h84v18.676c0 5.152-4.167 9.324-9.31 9.324H63.31c-5.143 0-9.31-4.19-9.31-9.324zm0-46.704C54 58.163 58.167 54 63.31 54h65.38c5.143 0 9.31 4.2 9.31 9.296v32.741c0 5.134-4.167 9.296-9.31 9.296H63.31c-5.143 0-9.31-4.2-9.31-9.296zm9.333.037h65.334v14H63.333zm0 25.69c0-1.306.999-2.356 2.357-2.356h4.62c1.307 0 2.357.998 2.357 2.356v4.62c0 1.307-.999 2.357-2.357 2.357h-4.62c-1.307 0-2.357-.999-2.357-2.357zm0 32.667c0-1.307.999-2.357 2.357-2.357h4.62c1.307 0 2.357.999 2.357 2.357v4.62c0 1.307-.999 2.357-2.357 2.357h-4.62c-1.307 0-2.357-.999-2.357-2.357z" fill="#fff" fill-rule="evenodd"/>
  </g>
</svg>
