<svg xmlns="http://www.w3.org/2000/svg" width="192" height="192">
  <defs>
    <clipPath id="a">
      <circle cx="96" cy="96" r="96" fill="none"/>
    </clipPath>
  </defs>
  <g clip-path="url(#a)" fill="none">
    <path fill="#f88300" d="M0 0h192v192H0z"/>
    <path d="M1138 1119.333L1119.333 1138l-14-14h-14l-9.333-9.333-.19 1.872-.543 1.748-.86 1.585-1.14 1.383-1.381 1.143-1.586.864-1.752.547-1.881.191H1054L54 124v-9.333h.805l.921-.002h1.195l2.99-.002 3.426-.002h7.608l.92.002.592.001.21.003V77.333l.19-1.867.543-1.745.86-1.583 1.14-1.382 1.38-1.144 1.586-.866 1.752-.55L82 68h37.333V54L1138 1072.667l-18.667 18.666-13.984-13.984-4.686.002h-4.645z" fill="#ef6c00"/>
    <path d="M54 124v-9.333h.805l.921-.002h1.195l2.99-.002 3.426-.002h7.608l.92.002.592.001.21.003V77.333l.19-1.867.543-1.745.86-1.583 1.14-1.382 1.38-1.144 1.586-.866 1.752-.55L82 68h37.333V54L192 126.667V192h-70z" fill="#ef6c00"/>
    <path d="M119.333 114.667v-14L138 119.333 119.333 138v-14h-28v-9.333zM114.667 68H82c-5.157.014-9.333 4.223-9.333 9.333v37.334c0-.014-18.658 0-18.667 0V124h18.667c5.156 0 9.333-4.21 9.333-9.333V77.333c0 .033 37.324.014 37.333 0v14L138 72.667 119.333 54v14z" fill="#fff" fill-rule="evenodd"/>
  </g>
</svg>
