<svg xmlns="http://www.w3.org/2000/svg" width="192" height="192">
  <defs>
    <clipPath id="a">
      <circle cx="96" cy="96" r="96" fill="none"/>
    </clipPath>
  </defs>
  <g clip-path="url(#a)" fill="none">
    <path fill="#ffab00" d="M0 0h192v192H0z"/>
    <path d="M1107.011 1076.874l-3.155-1.137-3.257-.615-3.296-.097-3.051.392 24.68 24.68 15.699 15.704.896 1.098.64 1.217.385 1.297.128 1.337-.128 1.336-.384 1.297-.64 1.218-.897 1.098-6.599 6.598-1.098.897-1.217.64-1.297.385-1.337.128-1.337-.128-1.297-.385-1.217-.64-1.098-.897-8.134-8.129v11.499l-.142 1.41-.408 1.314-.646 1.19-.854 1.035-1.036.855-1.19.646-1.313.407-1.411.143h-9.333l-1.411-.143-1.314-.407-1.19-.646-1.035-.855-9.251-9.251-.933.932-1.098.897-1.218.64-1.297.385-1.336.128-1.337-.128-1.297-.385-1.217-.64-1.098-.897L62.036 125.7l-.897-1.098-.64-1.218-.384-1.297-.128-1.336.128-1.337.384-1.297.64-1.217.897-1.098.932-.933-9.251-9.252-.855-1.036-.645-1.189-.408-1.314-.142-1.41v-9.334l.142-1.41.408-1.314.645-1.19.855-1.035 1.036-.855 1.189-.646 1.314-.407 1.41-.143h11.5l-8.13-8.134-.897-1.098-.64-1.217-.384-1.297-.128-1.337.128-1.336.384-1.297.64-1.218.897-1.098 6.599-6.598 1.098-.897 1.217-.64 1.297-.385 1.337-.128 1.336.128 1.297.385 1.218.64 1.098.897 8.134 8.129v-11.5l.142-1.41.408-1.314.645-1.19.855-1.035 1.036-.855 1.189-.646 1.314-.407 1.41-.143H103l1.41.143 1.315.407 1.189.646 1.036.855 1000 1000 .855 1.036.645 1.189.408 1.314.142 1.41v22.204z" fill="#ff9800"/>
    <path d="M62.036 125.699l-.897-1.098-.64-1.218-.384-1.297-.128-1.336.128-1.337.384-1.297.64-1.217.897-1.098.932-.933-9.251-9.252-.855-1.036-.645-1.189-.408-1.314-.142-1.41v-9.334l.142-1.41.408-1.314.645-1.19.855-1.035 1.036-.855 1.189-.646 1.314-.407 1.41-.143h11.5l-8.13-8.134-.897-1.098-.64-1.217-.384-1.297-.128-1.337.128-1.336.384-1.297.64-1.218.897-1.098 6.599-6.598 1.098-.897 1.217-.64 1.297-.385 1.337-.128 1.336.128 1.297.385 1.218.64 1.098.897 8.134 8.129V56.333l.142-1.41.408-1.314.645-1.19.855-1.035 1.036-.855 1.189-.646 1.314-.407 1.41-.143H103l1.41.143 1.315.407 1.189.646 1.036.855 84.05 84.05V192h-63.663z" fill="#ff9800"/>
    <path d="M110 78.537a21 21 0 1 0 8.932 21.56l15.699 15.704a7 7 0 0 1 0 9.898l-6.599 6.598a7 7 0 0 1-9.898 0L110 124.168v11.499a7 7 0 0 1-7 7h-9.333a7 7 0 0 1-7-7v-11.499l-8.134 8.13a7 7 0 0 1-9.898 0l-6.599-6.6a7 7 0 0 1 0-9.897l8.13-8.134h-11.5a7 7 0 0 1-7-7v-9.334a7 7 0 0 1 7-7h11.5l-8.13-8.134a7 7 0 0 1 0-9.898l6.599-6.598a7 7 0 0 1 9.898 0l8.134 8.129V56.333a7 7 0 0 1 7-7H103a7 7 0 0 1 7 7zm-11.667 26.796a9.333 9.333 0 1 1 0-18.666 9.333 9.333 0 0 1 0 18.666z" fill="#fff"/>
  </g>
</svg>
